<svg width="180" height="180" viewBox="0 0 180 180" fill="none" xmlns="http://www.w3.org/2000/svg">
  <rect width="180" height="180" rx="24" fill="#10b981"/>
  <!-- Outer maze border -->
  <rect x="20" y="20" width="140" height="140" rx="8" stroke="white" stroke-width="6" fill="none"/>
  <!-- Maze paths -->
  <path d="M35 50 L35 85" stroke="white" stroke-width="6" stroke-linecap="round"/>
  <path d="M35 110 L35 145" stroke="white" stroke-width="6" stroke-linecap="round"/>
  <path d="M50 35 L85 35" stroke="white" stroke-width="6" stroke-linecap="round"/>
  <path d="M145 50 L145 85" stroke="white" stroke-width="6" stroke-linecap="round"/>
  <path d="M145 110 L145 145" stroke="white" stroke-width="6" stroke-linecap="round"/>
  <path d="M95 35 L130 35" stroke="white" stroke-width="6" stroke-linecap="round"/>
  <path d="M50 145 L85 145" stroke="white" stroke-width="6" stroke-linecap="round"/>
  <path d="M95 145 L130 145" stroke="white" stroke-width="6" stroke-linecap="round"/>
  <!-- Inner maze elements -->
  <path d="M50 65 L50 50 L65 50" stroke="white" stroke-width="5" stroke-linecap="round" fill="none"/>
  <path d="M130 65 L130 50 L115 50" stroke="white" stroke-width="5" stroke-linecap="round" fill="none"/>
  <path d="M50 115 L50 130 L65 130" stroke="white" stroke-width="5" stroke-linecap="round" fill="none"/>
  <path d="M130 115 L130 130 L115 130" stroke="white" stroke-width="5" stroke-linecap="round" fill="none"/>
  <!-- Flag -->
  <path d="M70 70 L70 120 M70 70 L110 80 L70 95" fill="white" stroke="white" stroke-width="4" stroke-linejoin="round"/>
</svg>
